<svg xmlns="http://www.w3.org/2000/svg" viewBox="0 0 130.24 151.78">
<defs><style>.cls-1{fill:#e95d0b;}</style></defs><g id="Layer_2" data-name="Layer 2"><g id="Layer_1-2" data-name="Layer 1"><path class="cls-1" d="M89.1,151.78c-.21-.34.08-.58.2-.83a62.17,62.17,0,0,0,6.16-23.6Q97.23,96.8,77.71,73.16a58.64,58.64,0,0,0-10.35-9.68c-.24-.18-.49-.34-.9-.61a54.77,54.77,0,0,1-1.94,22.2,48.81,48.81,0,0,1-10.16,19.6c1.24-7.74.23-15.06-3.89-21.78-.3,0-.31.19-.34.32a72.42,72.42,0,0,1-10.68,24.53A53.36,53.36,0,0,0,33,120.1c-2.5,7.3-2.22,14.6-.11,21.92a64.93,64.93,0,0,0,3.27,8.76c.13.3.47.58.26,1v0c-8.86-5.06-17.29-10.7-24.35-18.17a42.62,42.62,0,0,1-10.87-19A45.92,45.92,0,0,1,.42,97.81c1-8.4,4.16-16.09,7.85-23.6,1.61-3.29,3.25-6.57,4.8-9.89C16,58,18.41,51.58,18.94,44.4c4.54,7.78,5.75,16.2,6.06,24.93A4.71,4.71,0,0,0,26.22,68c7.71-9.76,14.73-20,20.09-31.23a78.7,78.7,0,0,0,7.16-22.42A48.18,48.18,0,0,0,53.61.5a4.12,4.12,0,0,1,0-.5,41.41,41.41,0,0,1,8.87,4.65A72,72,0,0,1,84.12,28a104.38,104.38,0,0,1,11,26.35c.1.38.21.76.33,1.13,0,0,.07.09.14.18A15.6,15.6,0,0,0,100,48.12a30.36,30.36,0,0,0-1.15-18.67c-.09-.27-.31-.52-.24-.89a12.92,12.92,0,0,1,2,1.69A105.44,105.44,0,0,1,120,56a83.23,83.23,0,0,1,9.32,25.78q4.47,25.73-11.6,46.35c-6.55,8.38-14.68,15-23.59,20.63-1.64,1-3.33,2-5,3Z"/></g></g></svg>