<svg id="Layer_1" data-name="Layer 1" xmlns="http://www.w3.org/2000/svg" viewBox="0 0 127.31 118.23"><defs><style>.cls-16{fill:#333;}.cls-17{fill:#c1272d;}</style></defs><path class="cls-16" d="M8.34,90.75a22.85,22.85,0,0,1-1-13.32,20.92,20.92,0,0,1,7.84-12.32c1-.74,6.89-4.89,14.46-3.66a17.72,17.72,0,0,1,5.17,1.68,17.94,17.94,0,0,0-10.31-7.27,18.92,18.92,0,0,0-9.62.44,21.56,21.56,0,0,0-5.15,2.24,9.86,9.86,0,0,1-4.25-2.46,10.39,10.39,0,0,1-2.91-7.16A11.9,11.9,0,0,0,4,63.91c-.64.84-5.6,7.54-3.4,16A18.84,18.84,0,0,0,8.34,90.75Z"/><path class="cls-16" d="M123.19,65.5C113.64,83.62,96.16,90.07,93.5,91c-6,2.06-16.19,5.61-27.14,1.9-10.06-3.4-18.15-12-19.67-13.62C41,73.15,39.14,68.45,32.82,66.61a18.37,18.37,0,0,0-10.4.18,17.22,17.22,0,0,0-9.89,7.5A16.78,16.78,0,0,0,10.32,84c.3,3.7,1.91,7.36,6.47,12.38a61.62,61.62,0,0,0,21.05,14.84c7.31,3.12,22.57,9.72,41.76,5.86a55,55,0,0,0,24.94-11.33C113,98.77,117,91,119.67,85.57A74.45,74.45,0,0,0,127.31,55,50.89,50.89,0,0,1,123.19,65.5ZM93.42,107.3c-13.25,6.7-26.1,5.7-30.88,5.26-10.54-1-18.42-4.51-23.84-7a73.91,73.91,0,0,1-11.83-6.84c-8.58-6.05-10-9.78-10.48-11.42-1-3.41-.68-7.32.38-7.6,1.21-.33,2.68,4.3,6.21,9,3.82,5.08,8.05,7.53,14,11,4.9,2.84,12.79,7.42,24.22,9.18,4.65.71,16.55,2.39,29.25-2.58,15.94-6.26,23.8-19.36,24.12-19S107.86,100,93.42,107.3Z"/><path class="cls-17" d="M123.66,54.29c-1.42,1.15-3.43,2.37-5.59,2a6,6,0,0,1-2.46-1.12A16,16,0,0,0,107.33,53a9.16,9.16,0,0,1,4.47,6.71,8.63,8.63,0,0,1-2.46,6.93c-.34.33-2.88,2.78-5.37,2.24-4.46-1-5.86-10.95-5.89-16.21a34.72,34.72,0,0,1,4.72-17.33c-2.12,1.41-19.86,13.57-19,31.26a26.78,26.78,0,0,0,2.12,9.17A19.26,19.26,0,0,1,77.81,59.1c.24-11.79,8.32-21.65,11-32.22,1.55-6,2-14.81-2.86-26.88.74,16.14-3.71,24.77-7.93,29.67-3.47,4-6.76,5.49-10.95,11a45.72,45.72,0,0,0-8.43,19.82,30.06,30.06,0,0,1-6.18-14.72C50.64,30.08,62.79,19,64.15,17.82a38.28,38.28,0,0,0-15,10.74c-4.6,5.54-5.26,11.32-11.64,16.11a25,25,0,0,1-7.38,3.8A13.56,13.56,0,0,1,29,44.67c-.77-5.64,2.34-10.08,3.36-11.41a21.86,21.86,0,0,0-6.94,7.83A16,16,0,0,1,23,45.34a12.39,12.39,0,0,1-6.26,3.58,24.12,24.12,0,0,1,7.83.89s5.68,1.65,12.75,8.28a27,27,0,0,1,3,3.42h0c1.73,2.2,2.82,4.12,4.34,6.43,8.1,12.23,22.06,16.76,22.83,17,9.62,3,18.52,1.26,24-.48h0a54.72,54.72,0,0,0,5.21-2.23C111.12,75.14,119.28,62.9,123.66,54.29Z"/></svg>