<svg id="Layer_1" data-name="Layer 1" xmlns="http://www.w3.org/2000/svg" viewBox="0 0 479.93 479.99"><path d="M455.73,260.8c25-34.44,34.55-73.23,28.71-115.29-5.37-38.68-22.83-71.43-52.29-97.28-38.7-33.95-83.82-46.69-134.45-38-36.5,6.27-67.11,24-91.62,51.84-25.11,28.58-38.55,62-39.83,100-1.19,35,8.14,67.17,28.17,96,2.29,3.29,2,5.14-.83,7.86-9.55,9.29-18.8,18.87-28.16,28.34a16.86,16.86,0,0,1-1.61-1.16c-9.82-9-11-8.93-20.23.34Q77.44,359.64,11.27,425.81c-.82.83-1.71,1.59-2.46,2.48-3.35,3.93-3.65,8-.08,11.64,7.18,7.37,14.13,15,22,21.64,7.15,8.79,15.58,16.33,23.71,24.16,2.32,2.23,5.43,2.29,8.41,1,2.34-1,4-3,5.73-4.74q66.91-66.87,133.82-133.77c.71-.7,1.46-1.37,2.1-2.13,3.58-4.21,3.54-8.36-.13-12.5-1.64-1.86-3.32-3.7-5-5.54l31.65-31.56q3.33,2.19,6.67,4.37c33.7,22.08,70.68,30.7,110.43,25.06C393,319.51,429.12,297.51,455.73,260.8ZM311.21,281.21A109,109,0,0,1,253,256.38a118,118,0,0,1-37.92-60.84c-2.32-9.12-2.21-18.37-3.72-26.41,1.52-50.2,30-91.84,77.68-108.6a105.19,105.19,0,0,1,37.07-6.05,117.42,117.42,0,0,1,43.8,9.13,116,116,0,0,1,38.37,26.28,95.38,95.38,0,0,1,7.51,8.63c18.26,25,26.45,52.78,22.57,83.85-2.95,23.63-11.94,44.7-28,62C383.65,273.16,350.46,285.77,311.21,281.21Z" transform="translate(-6.17 -7.58)"/></svg>