<?xml version="1.0" standalone="no"?>
<!DOCTYPE svg PUBLIC "-//W3C//DTD SVG 20010904//EN"
 "http://www.w3.org/TR/2001/REC-SVG-20010904/DTD/svg10.dtd">
<svg version="1.0" xmlns="http://www.w3.org/2000/svg"
 width="501.000000pt" height="501.000000pt" viewBox="0 0 501.000000 501.000000"
 preserveAspectRatio="xMidYMid meet">
<metadata>
Created by potrace 1.11, written by Peter Selinger 2001-2013
</metadata>
<g transform="translate(0.000000,501.000000) scale(0.100000,-0.100000)"
fill="#000000" stroke="none">
<path d="M918 5004 c-2 -1 -25 -5 -52 -8 -155 -21 -344 -102 -472 -204 -179
-142 -306 -338 -367 -566 l-22 -81 0 -1640 0 -1640 23 -80 c27 -96 57 -174 90
-235 155 -284 423 -476 740 -531 78 -14 3126 -20 3227 -7 111 15 128 18 219
49 323 108 578 379 662 702 9 34 19 71 22 82 10 32 13 3245 3 3290 -5 22 -12
57 -15 77 -8 55 -61 191 -100 262 -124 222 -317 388 -548 471 -172 62 -60 58
-1810 60 -879 1 -1599 1 -1600 -1z"/>
</g>
</svg>
